<svg xmlns="http://www.w3.org/2000/svg" viewBox="0 0 512 512">
  <defs>
    <linearGradient id="g" x1="0" x2="1" y1="0" y2="1">
      <stop offset="0%" stop-color="#06b6d4"/>
      <stop offset="100%" stop-color="#0ea5e9"/>
    </linearGradient>
  </defs>
  <rect width="512" height="512" rx="96" fill="url(#g)"/>
  <g fill="#fff" transform="translate(96,96)">
    <path d="M160 0c88.365 0 160 71.635 160 160s-71.635 160-160 160S0 248.365 0 160 71.635 0 160 0zm0 48a112 112 0 100 224 112 112 0 000-224z" opacity="0.9"/>
    <path d="M160 88c39.764 0 72 32.236 72 72s-32.236 72-72 72-72-32.236-72-72 32.236-72 72-72z"/>
  </g>
</svg>
